<?xml version="1.0" encoding="UTF-8"?>
<!DOCTYPE svg PUBLIC "-//W3C//DTD SVG 1.1//EN" "http://www.w3.org/Graphics/SVG/1.1/DTD/svg11.dtd">
<svg xmlns="http://www.w3.org/2000/svg" version="1.1" width="284px" height="176px" style="shape-rendering:geometricPrecision; text-rendering:geometricPrecision; image-rendering:optimizeQuality; fill-rule:evenodd; clip-rule:evenodd" xmlns:xlink="http://www.w3.org/1999/xlink">
<g><path style="opacity:0.004" fill="#0000ff" d="M 35.5,1.5 C 36.8333,2.16667 36.8333,2.16667 35.5,1.5 Z"/></g>
<g><path style="opacity:0.004" fill="#0000ff" d="M 59.5,1.5 C 60.8333,2.16667 60.8333,2.16667 59.5,1.5 Z"/></g>
<g><path style="opacity:0.004" fill="#0000ff" d="M 71.5,3.5 C 72.8333,4.16667 72.8333,4.16667 71.5,3.5 Z"/></g>
<g><path style="opacity:0.004" fill="#0000ff" d="M 119.5,3.5 C 120.833,4.16667 120.833,4.16667 119.5,3.5 Z"/></g>
<g><path style="opacity:0.004" fill="#0000ff" d="M 142.5,5.5 C 143.833,6.16667 143.833,6.16667 142.5,5.5 Z"/></g>
<g><path style="opacity:0.004" fill="#0000ff" d="M 121.5,7.5 C 122.833,8.16667 122.833,8.16667 121.5,7.5 Z"/></g>
<g><path style="opacity:0.004" fill="#0000ff" d="M 22.5,9.5 C 23.8333,10.1667 23.8333,10.1667 22.5,9.5 Z"/></g>
<g><path style="opacity:0.004" fill="#0000ff" d="M 44.5,9.5 C 45.8333,10.1667 45.8333,10.1667 44.5,9.5 Z"/></g>
<g><path style="opacity:0.004" fill="#000000" d="M 205.5,10.5 C 206.833,11.1667 206.833,11.1667 205.5,10.5 Z"/></g>
<g><path style="opacity:1" fill="#e3fdfe" d="M 164.5,12.5 C 143.831,12.3334 123.164,12.5 102.5,13C 101.956,13.7172 101.289,14.2172 100.5,14.5C 100.756,12.2239 102.09,11.0572 104.5,11C 124.683,10.3851 144.683,10.8851 164.5,12.5 Z"/></g>
<g><path style="opacity:0.004" fill="#0000ff" d="M 54.5,12.5 C 55.8333,13.1667 55.8333,13.1667 54.5,12.5 Z"/></g>
<g><path style="opacity:1" fill="#f6fdfd" d="M 164.5,12.5 C 165.114,14.2825 166.28,15.6159 168,16.5C 169.404,32.4569 169.904,48.4569 169.5,64.5C 172.598,64.4125 172.932,64.9125 170.5,66C 172.715,67.0438 175.048,67.7105 177.5,68C 173.179,68.499 168.846,68.6657 164.5,68.5C 164.83,51.9915 164.496,35.6581 163.5,19.5C 158.26,18.5509 152.927,18.2175 147.5,18.5C 133.529,17.571 119.529,17.2377 105.5,17.5C 105.5,30.5 105.5,43.5 105.5,56.5C 105.5,59.5 105.5,62.5 105.5,65.5C 105.5,66.8333 105.5,68.1667 105.5,69.5C 104.533,70.8062 103.199,71.4729 101.5,71.5C 97.3951,71.2338 93.3951,71.7338 89.5,73C 88.8612,77.1206 88.1945,81.2873 87.5,85.5C 86.5713,84.3112 86.238,82.9778 86.5,81.5C 82.5842,81.0255 79.2509,82.0255 76.5,84.5C 70.4024,86.7011 64.4024,89.2011 58.5,92C 57.5769,94.0408 57.2436,96.2075 57.5,98.5C 60.3274,98.4162 62.994,97.7496 65.5,96.5C 65.1788,98.0481 64.1788,98.7148 62.5,98.5C 62.5,99.5 62.5,100.5 62.5,101.5C 59.086,100.858 56.2526,99.1914 54,96.5C 52.1415,99.306 52.6415,101.806 55.5,104C 57.4727,104.495 59.4727,104.662 61.5,104.5C 62.0895,108.897 62.0895,113.23 61.5,117.5C 58.5416,118.985 55.5416,120.319 52.5,121.5C 54.1927,118.318 56.8593,116.652 60.5,116.5C 59.8023,113.104 59.8023,109.771 60.5,106.5C 53.1463,105.643 49.4797,101.477 49.5,94C 49.8632,90.8308 51.1966,88.1641 53.5,86C 59.1178,83.5193 64.7845,81.3526 70.5,79.5C 75.3344,78.4215 80.001,76.7548 84.5,74.5C 85.2309,72.5988 85.2309,70.5988 84.5,68.5C 88.8377,67.5949 93.1711,66.5949 97.5,65.5C 98.3184,62.8929 98.8184,60.2263 99,57.5C 99.2548,43.1465 99.7548,28.8131 100.5,14.5C 101.289,14.2172 101.956,13.7172 102.5,13C 123.164,12.5 143.831,12.3334 164.5,12.5 Z"/></g>
<g><path style="opacity:0.004" fill="#0000ff" d="M 175.5,15.5 C 176.833,16.1667 176.833,16.1667 175.5,15.5 Z"/></g>
<g><path style="opacity:0.004" fill="#000000" d="M 271.5,18.5 C 272.833,19.1667 272.833,19.1667 271.5,18.5 Z"/></g>
<g><path style="opacity:1" fill="#14fafb" d="M 147.5,19.5 C 152.167,19.5 156.833,19.5 161.5,19.5C 161.5,32.8333 161.5,46.1667 161.5,59.5C 159.5,59.5 157.5,59.5 155.5,59.5C 155.5,52.8333 155.5,46.1667 155.5,39.5C 150.968,39.1818 146.634,39.5151 142.5,40.5C 142.5,40.8333 142.5,41.1667 142.5,41.5C 142.167,41.5 141.833,41.5 141.5,41.5C 141.5,40.5 141.5,39.5 141.5,38.5C 143.833,38.5 146.167,38.5 148.5,38.5C 148.5,36.1667 148.5,33.8333 148.5,31.5C 139.167,31.5 129.833,31.5 120.5,31.5C 120.5,33.8333 120.5,36.1667 120.5,38.5C 118.167,38.5 115.833,38.5 113.5,38.5C 113.5,40.1667 113.5,41.8333 113.5,43.5C 112.513,48.3054 112.179,53.3054 112.5,58.5C 109.918,58.9746 107.918,58.3079 106.5,56.5C 106.96,43.8374 107.293,31.1708 107.5,18.5C 120.815,19.3327 134.149,19.6661 147.5,19.5 Z"/></g>
<g><path style="opacity:0.004" fill="#000000" d="M 277.5,25.5 C 278.833,26.1667 278.833,26.1667 277.5,25.5 Z"/></g>
<g><path style="opacity:0.004" fill="#000000" d="M 242.5,28.5 C 243.833,29.1667 243.833,29.1667 242.5,28.5 Z"/></g>
<g><path style="opacity:1" fill="#5bebea" d="M 147.5,18.5 C 147.5,18.8333 147.5,19.1667 147.5,19.5C 134.149,19.6661 120.815,19.3327 107.5,18.5C 107.293,31.1708 106.96,43.8374 106.5,56.5C 106.167,56.5 105.833,56.5 105.5,56.5C 105.5,43.5 105.5,30.5 105.5,17.5C 119.529,17.2377 133.529,17.571 147.5,18.5 Z"/></g>
<g><path style="opacity:0.004" fill="#0000ff" d="M 67.5,32.5 C 68.8333,33.1667 68.8333,33.1667 67.5,32.5 Z"/></g>
<g><path style="opacity:1" fill="#0eddfb" d="M 141.5,41.5 C 141.5,45.1667 141.5,48.8333 141.5,52.5C 138.5,52.5 135.5,52.5 132.5,52.5C 131.081,51.5489 129.415,51.2155 127.5,51.5C 127.818,46.9677 127.485,42.6344 126.5,38.5C 124.5,38.5 122.5,38.5 120.5,38.5C 120.5,36.1667 120.5,33.8333 120.5,31.5C 129.833,31.5 139.167,31.5 148.5,31.5C 148.5,33.8333 148.5,36.1667 148.5,38.5C 146.167,38.5 143.833,38.5 141.5,38.5C 141.5,39.5 141.5,40.5 141.5,41.5 Z"/></g>
<g><path style="opacity:1" fill="#66dfe8" d="M 147.5,19.5 C 147.5,19.1667 147.5,18.8333 147.5,18.5C 152.927,18.2175 158.26,18.5509 163.5,19.5C 162.848,36.8662 163.514,53.8662 165.5,70.5C 165.158,71.3382 164.492,71.6716 163.5,71.5C 162.833,71.5 162.167,71.5 161.5,71.5C 161.5,69.8333 161.5,68.1667 161.5,66.5C 159.5,66.5 157.5,66.5 155.5,66.5C 155.5,64.1667 155.5,61.8333 155.5,59.5C 157.5,59.5 159.5,59.5 161.5,59.5C 161.5,46.1667 161.5,32.8333 161.5,19.5C 156.833,19.5 152.167,19.5 147.5,19.5 Z"/></g>
<g><path style="opacity:0.004" fill="#0000ff" d="M 40.5,33.5 C 41.8333,34.1667 41.8333,34.1667 40.5,33.5 Z"/></g>
<g><path style="opacity:0.004" fill="#0000ff" d="M 94.5,39.5 C 95.8333,40.1667 95.8333,40.1667 94.5,39.5 Z"/></g>
<g><path style="opacity:1" fill="#fbfefd" d="M 126.5,39.5 C 126.5,41.5 126.5,43.5 126.5,45.5C 125.804,49.2315 125.138,53.0648 124.5,57C 121.132,57.5428 117.799,57.3761 114.5,56.5C 114.5,50.8333 114.5,45.1667 114.5,39.5C 118.5,39.5 122.5,39.5 126.5,39.5 Z"/></g>
<g><path style="opacity:1" fill="#fbfcfd" d="M 142.5,40.5 C 146.437,40.2065 150.27,40.5399 154,41.5C 154.499,47.1569 154.666,52.8236 154.5,58.5C 150.5,58.5 146.5,58.5 142.5,58.5C 142.5,52.8333 142.5,47.1667 142.5,41.5C 142.5,41.1667 142.5,40.8333 142.5,40.5 Z"/></g>
<g><path style="opacity:0.004" fill="#000000" d="M 255.5,50.5 C 256.833,51.1667 256.833,51.1667 255.5,50.5 Z"/></g>
<g><path style="opacity:1" fill="#0af9fc" d="M 132.5,52.5 C 135.5,52.5 138.5,52.5 141.5,52.5C 141.5,54.8333 141.5,57.1667 141.5,59.5C 141.577,60.7498 142.244,61.5831 143.5,62C 140.445,62.7595 137.945,61.9261 136,59.5C 134.422,60.7113 134.255,62.0446 135.5,63.5C 136.795,64.0983 138.128,64.5983 139.5,65C 134.762,65.0643 130.096,65.8976 125.5,67.5C 125.463,63.7751 123.796,62.4418 120.5,63.5C 119.526,65.7427 119.192,68.076 119.5,70.5C 115.958,70.1872 112.625,70.5206 109.5,71.5C 107.517,71.8432 106.183,71.1765 105.5,69.5C 105.5,68.1667 105.5,66.8333 105.5,65.5C 107.833,65.5 110.167,65.5 112.5,65.5C 112.5,63.5 112.5,61.5 112.5,59.5C 117.5,59.5 122.5,59.5 127.5,59.5C 126.53,55.0685 128.197,52.7352 132.5,52.5 Z"/></g>
<g><path style="opacity:0.004" fill="#000000" d="M 265.5,52.5 C 266.833,53.1667 266.833,53.1667 265.5,52.5 Z"/></g>
<g><path style="opacity:1" fill="#d8fffe" d="M 120.5,38.5 C 122.5,38.5 124.5,38.5 126.5,38.5C 126.5,38.8333 126.5,39.1667 126.5,39.5C 122.5,39.5 118.5,39.5 114.5,39.5C 114.5,45.1667 114.5,50.8333 114.5,56.5C 117.799,57.3761 121.132,57.5428 124.5,57C 125.138,53.0648 125.804,49.2315 126.5,45.5C 126.5,49.8333 126.5,54.1667 126.5,58.5C 122.167,58.5 117.833,58.5 113.5,58.5C 113.5,53.5 113.5,48.5 113.5,43.5C 113.5,41.8333 113.5,40.1667 113.5,38.5C 115.833,38.5 118.167,38.5 120.5,38.5 Z"/></g>
<g><path style="opacity:1" fill="#76f3f9" d="M 126.5,38.5 C 127.485,42.6344 127.818,46.9677 127.5,51.5C 129.415,51.2155 131.081,51.5489 132.5,52.5C 128.197,52.7352 126.53,55.0685 127.5,59.5C 122.5,59.5 117.5,59.5 112.5,59.5C 112.5,59.1667 112.5,58.8333 112.5,58.5C 112.179,53.3054 112.513,48.3054 113.5,43.5C 113.5,48.5 113.5,53.5 113.5,58.5C 117.833,58.5 122.167,58.5 126.5,58.5C 126.5,54.1667 126.5,49.8333 126.5,45.5C 126.5,43.5 126.5,41.5 126.5,39.5C 126.5,39.1667 126.5,38.8333 126.5,38.5 Z"/></g>
<g><path style="opacity:1" fill="#c8fefe" d="M 142.5,40.5 C 146.634,39.5151 150.968,39.1818 155.5,39.5C 155.5,46.1667 155.5,52.8333 155.5,59.5C 150.833,59.5 146.167,59.5 141.5,59.5C 141.5,57.1667 141.5,54.8333 141.5,52.5C 141.5,48.8333 141.5,45.1667 141.5,41.5C 141.833,41.5 142.167,41.5 142.5,41.5C 142.5,47.1667 142.5,52.8333 142.5,58.5C 146.5,58.5 150.5,58.5 154.5,58.5C 154.666,52.8236 154.499,47.1569 154,41.5C 150.27,40.5399 146.437,40.2065 142.5,40.5 Z"/></g>
<g><path style="opacity:0.004" fill="#000000" d="M 201.5,58.5 C 202.833,59.1667 202.833,59.1667 201.5,58.5 Z"/></g>
<g><path style="opacity:0.004" fill="#000000" d="M 210.5,58.5 C 211.833,59.1667 211.833,59.1667 210.5,58.5 Z"/></g>
<g><path style="opacity:1" fill="#10e6fa" d="M 105.5,56.5 C 105.833,56.5 106.167,56.5 106.5,56.5C 107.918,58.3079 109.918,58.9746 112.5,58.5C 112.5,58.8333 112.5,59.1667 112.5,59.5C 112.5,61.5 112.5,63.5 112.5,65.5C 110.167,65.5 107.833,65.5 105.5,65.5C 105.5,62.5 105.5,59.5 105.5,56.5 Z"/></g>
<g><path style="opacity:1" fill="#09f7fd" d="M 141.5,59.5 C 146.167,59.5 150.833,59.5 155.5,59.5C 155.5,61.8333 155.5,64.1667 155.5,66.5C 157.5,66.5 159.5,66.5 161.5,66.5C 161.5,68.1667 161.5,69.8333 161.5,71.5C 144.328,72.6414 126.994,72.6414 109.5,71.5C 112.625,70.5206 115.958,70.1872 119.5,70.5C 119.192,68.076 119.526,65.7427 120.5,63.5C 123.796,62.4418 125.463,63.7751 125.5,67.5C 130.096,65.8976 134.762,65.0643 139.5,65C 138.128,64.5983 136.795,64.0983 135.5,63.5C 134.255,62.0446 134.422,60.7113 136,59.5C 137.945,61.9261 140.445,62.7595 143.5,62C 142.244,61.5831 141.577,60.7498 141.5,59.5 Z"/></g>
<g><path style="opacity:0.004" fill="#000000" d="M 275.5,61.5 C 276.833,62.1667 276.833,62.1667 275.5,61.5 Z"/></g>
<g><path style="opacity:0.004" fill="#000000" d="M 260.5,63.5 C 261.833,64.1667 261.833,64.1667 260.5,63.5 Z"/></g>
<g><path style="opacity:0.004" fill="#000000" d="M 245.5,65.5 C 246.833,66.1667 246.833,66.1667 245.5,65.5 Z"/></g>
<g><path style="opacity:1" fill="#ecfcfd" d="M 164.5,12.5 C 167.856,13.0251 169.689,15.0251 170,18.5C 170.167,33.178 170.667,47.8447 171.5,62.5C 175.114,63.8204 178.78,64.987 182.5,66C 186.205,69.6508 187.539,74.1508 186.5,79.5C 195.657,82.9945 204.157,87.6611 212,93.5C 212.402,94.8721 212.902,96.2054 213.5,97.5C 212.594,101.636 210.928,105.302 208.5,108.5C 209.397,105.307 210.397,102.141 211.5,99C 211.294,97.634 210.96,96.3006 210.5,95C 207.376,92.2661 204.043,89.7661 200.5,87.5C 200.446,88.5301 200.112,89.6967 199.5,91C 200.823,91.8159 201.489,92.9826 201.5,94.5C 200.167,94.1667 198.833,93.8333 197.5,93.5C 191.667,89.9886 185.667,86.6553 179.5,83.5C 179.5,79.5 179.5,75.5 179.5,71.5C 175.499,71.7145 171.665,71.0479 168,69.5C 166.93,69.528 166.097,69.8614 165.5,70.5C 163.514,53.8662 162.848,36.8662 163.5,19.5C 164.496,35.6581 164.83,51.9915 164.5,68.5C 168.846,68.6657 173.179,68.499 177.5,68C 175.048,67.7105 172.715,67.0438 170.5,66C 172.932,64.9125 172.598,64.4125 169.5,64.5C 169.904,48.4569 169.404,32.4569 168,16.5C 166.28,15.6159 165.114,14.2825 164.5,12.5 Z"/></g>
<g><path style="opacity:0.004" fill="#00fffe" d="M 77.5,68.5 C 78.8333,69.1667 78.8333,69.1667 77.5,68.5 Z"/></g>
<g><path style="opacity:0.004" fill="#0000ff" d="M 1.5,69.5 C 2.83333,70.1667 2.83333,70.1667 1.5,69.5 Z"/></g>
<g><path style="opacity:1" fill="#dffafe" d="M 100.5,14.5 C 99.7548,28.8131 99.2548,43.1465 99,57.5C 98.8184,60.2263 98.3184,62.8929 97.5,65.5C 93.1711,66.5949 88.8377,67.5949 84.5,68.5C 85.2309,70.5988 85.2309,72.5988 84.5,74.5C 80.001,76.7548 75.3344,78.4215 70.5,79.5C 73.5539,77.4691 76.8872,75.8024 80.5,74.5C 83.4546,66.847 89.1212,63.5137 97.5,64.5C 98.1577,48.5096 98.6577,32.5096 99,16.5C 99.2784,15.5842 99.7784,14.9175 100.5,14.5 Z"/></g>
<g><path style="opacity:0.004" fill="#000000" d="M 229.5,71.5 C 230.833,72.1667 230.833,72.1667 229.5,71.5 Z"/></g>
<g><path style="opacity:1" fill="#13cde9" d="M 105.5,69.5 C 106.183,71.1765 107.517,71.8432 109.5,71.5C 126.994,72.6414 144.328,72.6414 161.5,71.5C 162.167,71.5 162.833,71.5 163.5,71.5C 163.231,75.9315 163.564,80.2648 164.5,84.5C 163.833,84.5 163.167,84.5 162.5,84.5C 162.5,80.8333 162.5,77.1667 162.5,73.5C 158.833,73.5 155.167,73.5 151.5,73.5C 140.833,73.5 130.167,73.5 119.5,73.5C 114.695,72.5128 109.695,72.1795 104.5,72.5C 105.097,77.294 104.43,81.6273 102.5,85.5C 102.818,80.9677 102.485,76.6344 101.5,72.5C 101.5,72.1667 101.5,71.8333 101.5,71.5C 103.199,71.4729 104.533,70.8062 105.5,69.5 Z"/></g>
<g><path style="opacity:1" fill="#1bebf0" d="M 179.5,83.5 C 178.287,84.5747 176.787,85.2414 175,85.5C 171.527,84.8371 168.027,84.5037 164.5,84.5C 163.564,80.2648 163.231,75.9315 163.5,71.5C 164.492,71.6716 165.158,71.3382 165.5,70.5C 166.097,69.8614 166.93,69.528 168,69.5C 171.665,71.0479 175.499,71.7145 179.5,71.5C 179.5,75.5 179.5,79.5 179.5,83.5 Z"/></g>
<g><path style="opacity:1" fill="#0dfafa" d="M 101.5,72.5 C 102.485,76.6344 102.818,80.9677 102.5,85.5C 98.8598,86.2735 95.1932,86.9401 91.5,87.5C 90.559,82.9296 90.2256,78.263 90.5,73.5C 94.1981,73.4476 97.8648,73.1143 101.5,72.5 Z"/></g>
<g><path style="opacity:1" fill="#0151ad" d="M 119.5,73.5 C 119.5,73.8333 119.5,74.1667 119.5,74.5C 115.167,74.5 110.833,74.5 106.5,74.5C 106.817,78.7016 106.483,82.7016 105.5,86.5C 105.5,82.1667 105.5,77.8333 105.5,73.5C 110.167,73.5 114.833,73.5 119.5,73.5 Z"/></g>
<g><path style="opacity:1" fill="#0237ad" d="M 119.5,74.5 C 119.5,75.5 119.5,76.5 119.5,77.5C 119.5,78.1667 119.5,78.8333 119.5,79.5C 119.167,79.5 118.833,79.5 118.5,79.5C 118.5,78.5 118.5,77.5 118.5,76.5C 115.751,76.7261 113.084,76.3928 110.5,75.5C 108.126,78.5888 107.459,81.9222 108.5,85.5C 110.691,84.1191 112.024,82.1191 112.5,79.5C 113.107,79.6236 113.44,79.9569 113.5,80.5C 112.343,83.2727 111.676,86.2727 111.5,89.5C 108.753,89.8134 106.086,89.48 103.5,88.5C 104.243,87.8182 104.909,87.1515 105.5,86.5C 106.483,82.7016 106.817,78.7016 106.5,74.5C 110.833,74.5 115.167,74.5 119.5,74.5 Z"/></g>
<g><path style="opacity:1" fill="#0376c1" d="M 119.5,73.5 C 130.167,73.5 140.833,73.5 151.5,73.5C 151.5,73.8333 151.5,74.1667 151.5,74.5C 149.517,74.1568 148.183,74.8235 147.5,76.5C 147.5,76.8333 147.5,77.1667 147.5,77.5C 138.167,77.5 128.833,77.5 119.5,77.5C 119.5,76.5 119.5,75.5 119.5,74.5C 119.5,74.1667 119.5,73.8333 119.5,73.5 Z"/></g>
<g><path style="opacity:1" fill="#0562d3" d="M 151.5,74.5 C 154.187,74.3359 156.854,74.5026 159.5,75C 156.848,76.599 154.182,78.099 151.5,79.5C 151.414,78.5041 151.748,77.6708 152.5,77C 150.866,76.5065 149.199,76.3398 147.5,76.5C 148.183,74.8235 149.517,74.1568 151.5,74.5 Z"/></g>
<g><path style="opacity:1" fill="#09a5f6" d="M 151.5,74.5 C 151.5,74.1667 151.5,73.8333 151.5,73.5C 155.167,73.5 158.833,73.5 162.5,73.5C 162.5,77.1667 162.5,80.8333 162.5,84.5C 162.5,84.8333 162.5,85.1667 162.5,85.5C 159.779,85.9628 157.112,86.6295 154.5,87.5C 155.449,84.7925 155.449,82.1258 154.5,79.5C 151.065,81.837 149.732,85.1703 150.5,89.5C 150.167,89.5 149.833,89.5 149.5,89.5C 149.335,86.4816 149.502,83.4816 150,80.5C 150.383,79.944 150.883,79.6107 151.5,79.5C 154.182,78.099 156.848,76.599 159.5,75C 156.854,74.5026 154.187,74.3359 151.5,74.5 Z"/></g>
<g><path style="opacity:0.004" fill="#0000ff" d="M 189.5,76.5 C 190.833,77.1667 190.833,77.1667 189.5,76.5 Z"/></g>
<g><path style="opacity:0.004" fill="#000000" d="M 248.5,76.5 C 249.833,77.1667 249.833,77.1667 248.5,76.5 Z"/></g>
<g><path style="opacity:0.004" fill="#0000ff" d="M 57.5,77.5 C 58.8333,78.1667 58.8333,78.1667 57.5,77.5 Z"/></g>
<g><path style="opacity:1" fill="#0ea5e6" d="M 119.5,77.5 C 128.833,77.5 138.167,77.5 147.5,77.5C 147.5,81.5 147.5,85.5 147.5,89.5C 147.5,89.8333 147.5,90.1667 147.5,90.5C 147.167,90.5 146.833,90.5 146.5,90.5C 145.791,89.596 144.791,89.2627 143.5,89.5C 143.5,88.5 143.5,87.5 143.5,86.5C 144.5,86.5 145.5,86.5 146.5,86.5C 146.5,85.5 146.5,84.5 146.5,83.5C 146.5,82.8333 146.5,82.1667 146.5,81.5C 146.5,80.5 146.5,79.5 146.5,78.5C 137.651,78.1736 128.984,78.507 120.5,79.5C 120.167,79.5 119.833,79.5 119.5,79.5C 119.5,78.8333 119.5,78.1667 119.5,77.5 Z"/></g>
<g><path style="opacity:0.004" fill="#0000ff" d="M 42.5,78.5 C 43.8333,79.1667 43.8333,79.1667 42.5,78.5 Z"/></g>
<g><path style="opacity:1" fill="#0334c0" d="M 118.5,79.5 C 118.664,82.1873 118.497,84.854 118,87.5C 117.586,87.9574 117.086,88.2907 116.5,88.5C 115.686,86.2338 115.186,83.9005 115,81.5C 114.617,80.944 114.117,80.6107 113.5,80.5C 113.44,79.9569 113.107,79.6236 112.5,79.5C 112.024,82.1191 110.691,84.1191 108.5,85.5C 107.459,81.9222 108.126,78.5888 110.5,75.5C 113.084,76.3928 115.751,76.7261 118.5,76.5C 118.5,77.5 118.5,78.5 118.5,79.5 Z"/></g>
<g><path style="opacity:1" fill="#0125a1" d="M 147.5,76.5 C 149.199,76.3398 150.866,76.5065 152.5,77C 151.748,77.6708 151.414,78.5041 151.5,79.5C 150.883,79.6107 150.383,79.944 150,80.5C 149.502,83.4816 149.335,86.4816 149.5,89.5C 148.833,89.5 148.167,89.5 147.5,89.5C 147.5,85.5 147.5,81.5 147.5,77.5C 147.5,77.1667 147.5,76.8333 147.5,76.5 Z"/></g>
<g><path style="opacity:1" fill="#0d8bb7" d="M 119.5,73.5 C 114.833,73.5 110.167,73.5 105.5,73.5C 105.5,77.8333 105.5,82.1667 105.5,86.5C 102.187,87.0448 98.8536,87.5448 95.5,88C 94.2617,88.69 94.2617,89.19 95.5,89.5C 95.5,90.1667 95.1667,90.5 94.5,90.5C 94.1667,90.5 93.8333,90.5 93.5,90.5C 92.8333,89.5 92.1667,88.5 91.5,87.5C 95.1932,86.9401 98.8598,86.2735 102.5,85.5C 104.43,81.6273 105.097,77.294 104.5,72.5C 109.695,72.1795 114.695,72.5128 119.5,73.5 Z"/></g>
<g><path style="opacity:1" fill="#04cbf6" d="M 120.5,79.5 C 128.984,78.507 137.651,78.1736 146.5,78.5C 146.5,79.5 146.5,80.5 146.5,81.5C 137.887,80.7393 129.22,80.0726 120.5,79.5 Z"/></g>
<g><path style="opacity:0.004" fill="#0000ff" d="M 22.5,82.5 C 23.8333,83.1667 23.8333,83.1667 22.5,82.5 Z"/></g>
<g><path style="opacity:1" fill="#0550c5" d="M 118.5,79.5 C 118.833,79.5 119.167,79.5 119.5,79.5C 119.5,80.8333 119.5,82.1667 119.5,83.5C 119.5,85.8333 119.5,88.1667 119.5,90.5C 119.5,90.8333 119.5,91.1667 119.5,91.5C 118.039,92.6857 116.705,92.6857 115.5,91.5C 114.713,89.8958 113.38,89.2291 111.5,89.5C 111.676,86.2727 112.343,83.2727 113.5,80.5C 114.117,80.6107 114.617,80.944 115,81.5C 115.186,83.9005 115.686,86.2338 116.5,88.5C 117.086,88.2907 117.586,87.9574 118,87.5C 118.497,84.854 118.664,82.1873 118.5,79.5 Z"/></g>
<g><path style="opacity:0.004" fill="#000000" d="M 275.5,83.5 C 276.833,84.1667 276.833,84.1667 275.5,83.5 Z"/></g>
<g><path style="opacity:0.999" fill="#06e6fd" d="M 119.5,79.5 C 119.833,79.5 120.167,79.5 120.5,79.5C 129.22,80.0726 137.887,80.7393 146.5,81.5C 146.5,82.1667 146.5,82.8333 146.5,83.5C 144.5,83.5 142.5,83.5 140.5,83.5C 140.579,84.9305 140.246,86.2638 139.5,87.5C 135.184,88.3642 130.851,89.0309 126.5,89.5C 126.027,85.3617 123.693,83.3617 119.5,83.5C 119.5,82.1667 119.5,80.8333 119.5,79.5 Z"/></g>
<g><path style="opacity:1" fill="#11c0f6" d="M 154.5,87.5 C 154.167,88.1667 153.833,88.8333 153.5,89.5C 152.5,89.5 151.5,89.5 150.5,89.5C 149.732,85.1703 151.065,81.837 154.5,79.5C 155.449,82.1258 155.449,84.7925 154.5,87.5 Z"/></g>
<g><path style="opacity:0.004" fill="#000000" d="M 209.5,87.5 C 210.833,88.1667 210.833,88.1667 209.5,87.5 Z"/></g>
<g><path style="opacity:1" fill="#4ce3ee" d="M 101.5,71.5 C 101.5,71.8333 101.5,72.1667 101.5,72.5C 97.8648,73.1143 94.1981,73.4476 90.5,73.5C 90.2256,78.263 90.559,82.9296 91.5,87.5C 92.1667,88.5 92.8333,89.5 93.5,90.5C 88.8333,90.5 84.1667,90.5 79.5,90.5C 80.9972,89.6942 82.6639,89.0276 84.5,88.5C 85.6139,87.277 85.7805,85.9437 85,84.5C 82.2501,83.7089 79.4168,83.7089 76.5,84.5C 79.2509,82.0255 82.5842,81.0255 86.5,81.5C 86.238,82.9778 86.5713,84.3112 87.5,85.5C 88.1945,81.2873 88.8612,77.1206 89.5,73C 93.3951,71.7338 97.3951,71.2338 101.5,71.5 Z"/></g>
<g><path style="opacity:1" fill="#042a67" d="M 105.5,86.5 C 104.909,87.1515 104.243,87.8182 103.5,88.5C 106.086,89.48 108.753,89.8134 111.5,89.5C 113.38,89.2291 114.713,89.8958 115.5,91.5C 108.591,92.0397 101.924,91.3731 95.5,89.5C 94.2617,89.19 94.2617,88.69 95.5,88C 98.8536,87.5448 102.187,87.0448 105.5,86.5 Z"/></g>
<g><path style="opacity:1" fill="#092d7d" d="M 162.5,85.5 C 165.533,85.1315 168.2,85.7982 170.5,87.5C 165.265,89.45 159.598,90.1167 153.5,89.5C 153.833,88.8333 154.167,88.1667 154.5,87.5C 157.112,86.6295 159.779,85.9628 162.5,85.5 Z"/></g>
<g><path style="opacity:1" fill="#31f3f6" d="M 79.5,90.5 C 76.1694,90.0181 73.5027,91.0181 71.5,93.5C 70.8333,93.5 70.5,93.8333 70.5,94.5C 68.597,94.7959 66.9303,95.4625 65.5,96.5C 62.994,97.7496 60.3274,98.4162 57.5,98.5C 57.2436,96.2075 57.5769,94.0408 58.5,92C 64.4024,89.2011 70.4024,86.7011 76.5,84.5C 79.4168,83.7089 82.2501,83.7089 85,84.5C 85.7805,85.9437 85.6139,87.277 84.5,88.5C 82.6639,89.0276 80.9972,89.6942 79.5,90.5 Z"/></g>
<g><path style="opacity:1" fill="#14c1ec" d="M 119.5,83.5 C 123.693,83.3617 126.027,85.3617 126.5,89.5C 130.851,89.0309 135.184,88.3642 139.5,87.5C 140.246,86.2638 140.579,84.9305 140.5,83.5C 142.5,83.5 144.5,83.5 146.5,83.5C 146.5,84.5 146.5,85.5 146.5,86.5C 145.5,86.5 144.5,86.5 143.5,86.5C 143.5,87.5 143.5,88.5 143.5,89.5C 144.791,89.2627 145.791,89.596 146.5,90.5C 142.298,90.1832 138.298,90.5166 134.5,91.5C 133.833,91.5 133.167,91.5 132.5,91.5C 128.366,90.5151 124.032,90.1818 119.5,90.5C 119.5,88.1667 119.5,85.8333 119.5,83.5 Z"/></g>
<g><path style="opacity:1" fill="#062757" d="M 170.5,87.5 C 171.5,87.5 172.5,87.5 173.5,87.5C 173.918,88.2216 174.584,88.7216 175.5,89C 171.582,90.1564 167.582,90.6564 163.5,90.5C 162.391,90.5569 161.391,90.8902 160.5,91.5C 155.968,91.8182 151.634,91.4849 147.5,90.5C 147.5,90.1667 147.5,89.8333 147.5,89.5C 148.167,89.5 148.833,89.5 149.5,89.5C 149.833,89.5 150.167,89.5 150.5,89.5C 151.5,89.5 152.5,89.5 153.5,89.5C 159.598,90.1167 165.265,89.45 170.5,87.5 Z"/></g>
<g><path style="opacity:1" fill="#014d66" d="M 119.5,91.5 C 119.5,91.1667 119.5,90.8333 119.5,90.5C 124.032,90.1818 128.366,90.5151 132.5,91.5C 131.508,91.3284 130.842,91.6618 130.5,92.5C 127.167,92.5 123.833,92.5 120.5,92.5C 120.5,91.8333 120.167,91.5 119.5,91.5 Z"/></g>
<g><path style="opacity:1" fill="#015d64" d="M 79.5,90.5 C 84.1667,90.5 88.8333,90.5 93.5,90.5C 93.8333,90.5 94.1667,90.5 94.5,90.5C 91.5,91.1667 88.5,91.8333 85.5,92.5C 81.4975,92.0357 77.8309,92.7024 74.5,94.5C 74.631,93.7611 74.4643,93.0944 74,92.5C 73.3292,93.2524 72.4959,93.5858 71.5,93.5C 73.5027,91.0181 76.1694,90.0181 79.5,90.5 Z"/></g>
<g><path style="opacity:1" fill="#003b4e" d="M 134.5,91.5 C 138.298,90.5166 142.298,90.1832 146.5,90.5C 146.833,90.5 147.167,90.5 147.5,90.5C 151.634,91.4849 155.968,91.8182 160.5,91.5C 160.5,91.8333 160.5,92.1667 160.5,92.5C 152.167,92.5 143.833,92.5 135.5,92.5C 135.5,91.8333 135.167,91.5 134.5,91.5 Z"/></g>
<g><path style="opacity:1" fill="#022d39" d="M 173.5,87.5 C 176.045,87.1505 178.045,87.9838 179.5,90C 182.833,90.3333 186.167,90.6667 189.5,91C 190.381,91.7083 191.047,92.5416 191.5,93.5C 190.833,93.5 190.5,93.8333 190.5,94.5C 189.833,94.5 189.167,94.5 188.5,94.5C 180.567,92.5316 172.234,91.865 163.5,92.5C 163.5,91.8333 163.5,91.1667 163.5,90.5C 167.582,90.6564 171.582,90.1564 175.5,89C 174.584,88.7216 173.918,88.2216 173.5,87.5 Z"/></g>
<g><path style="opacity:1" fill="#23c3c3" d="M 85.5,92.5 C 90.5,92.5 95.5,92.5 100.5,92.5C 100.5,94.1667 100.5,95.8333 100.5,97.5C 98.8333,97.5 97.1667,97.5 95.5,97.5C 96.5676,96.5655 97.901,96.2322 99.5,96.5C 99.5,95.5 99.5,94.5 99.5,93.5C 90.6776,93.0214 82.0109,93.6881 73.5,95.5C 73.5,94.8333 73.8333,94.5 74.5,94.5C 77.8309,92.7024 81.4975,92.0357 85.5,92.5 Z"/></g>
<g><path style="opacity:1" fill="#1da9b0" d="M 113.5,108.5 C 112.513,103.695 112.179,98.6946 112.5,93.5C 109.5,93.5 106.5,93.5 103.5,93.5C 103.5,100.833 103.5,108.167 103.5,115.5C 102.511,110.025 102.178,104.358 102.5,98.5C 102.5,96.5 102.5,94.5 102.5,92.5C 106.167,92.5 109.833,92.5 113.5,92.5C 113.5,97.8333 113.5,103.167 113.5,108.5 Z"/></g>
<g><path style="opacity:1" fill="#20abb0" d="M 135.5,92.5 C 143.833,92.5 152.167,92.5 160.5,92.5C 161.833,94.1667 161.833,95.8333 160.5,97.5C 160.5,96.1667 160.5,94.8333 160.5,93.5C 151.346,93.0135 142.346,93.6801 133.5,95.5C 134.551,94.7777 135.218,93.7777 135.5,92.5 Z"/></g>
<g><path style="opacity:1" fill="#20b3b6" d="M 163.5,93.5 C 163.5,93.1667 163.5,92.8333 163.5,92.5C 172.234,91.865 180.567,92.5316 188.5,94.5C 180.252,93.5314 171.918,93.1981 163.5,93.5 Z"/></g>
<g><path style="opacity:1" fill="#1f8898" d="M 179.5,83.5 C 185.667,86.6553 191.667,89.9886 197.5,93.5C 195.824,94.1834 195.157,95.5168 195.5,97.5C 194.833,97.5 194.167,97.5 193.5,97.5C 193.771,95.6203 193.104,94.287 191.5,93.5C 191.047,92.5416 190.381,91.7083 189.5,91C 186.167,90.6667 182.833,90.3333 179.5,90C 178.045,87.9838 176.045,87.1505 173.5,87.5C 172.5,87.5 171.5,87.5 170.5,87.5C 168.2,85.7982 165.533,85.1315 162.5,85.5C 162.5,85.1667 162.5,84.8333 162.5,84.5C 163.167,84.5 163.833,84.5 164.5,84.5C 168.027,84.5037 171.527,84.8371 175,85.5C 176.787,85.2414 178.287,84.5747 179.5,83.5 Z"/></g>
<g><path style="opacity:1" fill="#0ef7f8" d="M 95.5,97.5 C 91.5,97.5 87.5,97.5 83.5,97.5C 83.5,98.8333 83.5,100.167 83.5,101.5C 85.8333,101.5 88.1667,101.5 90.5,101.5C 90.5,103.167 90.5,104.833 90.5,106.5C 88.1667,106.5 85.8333,106.5 83.5,106.5C 83.5,107.833 83.5,109.167 83.5,110.5C 85.3717,112.062 87.7051,113.062 90.5,113.5C 86.0335,114.338 81.7002,114.672 77.5,114.5C 76.3044,114.154 76.3044,113.654 77.5,113C 76.2068,112.51 74.8734,112.343 73.5,112.5C 73.5,106.833 73.5,101.167 73.5,95.5C 82.0109,93.6881 90.6776,93.0214 99.5,93.5C 99.5,94.5 99.5,95.5 99.5,96.5C 97.901,96.2322 96.5676,96.5655 95.5,97.5 Z"/></g>
<g><path style="opacity:1" fill="#13f6f6" d="M 120.5,92.5 C 123.833,92.5 127.167,92.5 130.5,92.5C 130.5,97.1667 130.5,101.833 130.5,106.5C 128.989,107.502 127.322,108.169 125.5,108.5C 125.024,110.993 123.69,112.993 121.5,114.5C 115.537,115.496 109.537,115.829 103.5,115.5C 103.5,108.167 103.5,100.833 103.5,93.5C 106.5,93.5 109.5,93.5 112.5,93.5C 112.179,98.6946 112.513,103.695 113.5,108.5C 114.833,108.5 115.5,107.833 115.5,106.5C 116.795,105.512 118.128,104.512 119.5,103.5C 120.482,100.038 120.815,96.3714 120.5,92.5 Z"/></g>
<g><path style="opacity:1" fill="#040709" d="M 119.5,103.5 C 118.128,104.512 116.795,105.512 115.5,106.5C 114.515,102.366 114.182,98.0323 114.5,93.5C 116.167,93.5 117.833,93.5 119.5,93.5C 119.5,96.8333 119.5,100.167 119.5,103.5 Z"/></g>
<g><path style="opacity:1" fill="#13f4f5" d="M 160.5,97.5 C 154.833,97.5 149.167,97.5 143.5,97.5C 143.5,98.8333 143.5,100.167 143.5,101.5C 146.167,101.5 148.833,101.5 151.5,101.5C 151.5,102.5 151.5,103.5 151.5,104.5C 151.672,105.492 151.338,106.158 150.5,106.5C 148.167,106.5 145.833,106.5 143.5,106.5C 143.5,108.167 143.5,109.833 143.5,111.5C 149.167,111.5 154.833,111.5 160.5,111.5C 160.5,112.833 160.5,114.167 160.5,115.5C 151.306,116.044 142.306,115.377 133.5,113.5C 133.5,107.5 133.5,101.5 133.5,95.5C 142.346,93.6801 151.346,93.0135 160.5,93.5C 160.5,94.8333 160.5,96.1667 160.5,97.5 Z"/></g>
<g><path style="opacity:1" fill="#032c37" d="M 95.5,89.5 C 101.924,91.3731 108.591,92.0397 115.5,91.5C 116.705,92.6857 118.039,92.6857 119.5,91.5C 120.167,91.5 120.5,91.8333 120.5,92.5C 120.815,96.3714 120.482,100.038 119.5,103.5C 119.5,100.167 119.5,96.8333 119.5,93.5C 117.833,93.5 116.167,93.5 114.5,93.5C 114.182,98.0323 114.515,102.366 115.5,106.5C 115.5,107.833 114.833,108.5 113.5,108.5C 113.5,103.167 113.5,97.8333 113.5,92.5C 109.833,92.5 106.167,92.5 102.5,92.5C 102.5,94.5 102.5,96.5 102.5,98.5C 101.833,98.1667 101.167,97.8333 100.5,97.5C 100.5,95.8333 100.5,94.1667 100.5,92.5C 95.5,92.5 90.5,92.5 85.5,92.5C 88.5,91.8333 91.5,91.1667 94.5,90.5C 95.1667,90.5 95.5,90.1667 95.5,89.5 Z"/></g>
<g><path style="opacity:1" fill="#2493ba" d="M 197.5,93.5 C 198.833,93.8333 200.167,94.1667 201.5,94.5C 205.92,96.1521 206.587,98.8187 203.5,102.5C 200.807,101.153 198.14,99.8201 195.5,98.5C 195.5,98.1667 195.5,97.8333 195.5,97.5C 195.157,95.5168 195.824,94.1834 197.5,93.5 Z"/></g>
<g><path style="opacity:0.004" fill="#000000" d="M 256.5,97.5 C 257.833,98.1667 257.833,98.1667 256.5,97.5 Z"/></g>
<g><path style="opacity:0.004" fill="#0000ff" d="M 15.5,98.5 C 16.8333,99.1667 16.8333,99.1667 15.5,98.5 Z"/></g>
<g><path style="opacity:1" fill="#263337" d="M 160.5,97.5 C 160.5,99.8333 160.5,102.167 160.5,104.5C 157.5,104.5 154.5,104.5 151.5,104.5C 151.5,103.5 151.5,102.5 151.5,101.5C 148.833,101.5 146.167,101.5 143.5,101.5C 143.5,100.167 143.5,98.8333 143.5,97.5C 149.167,97.5 154.833,97.5 160.5,97.5 Z"/></g>
<g><path style="opacity:0.004" fill="#000000" d="M 283.5,101.5 C 283.5,101.833 283.5,102.167 283.5,102.5C 282.83,102.019 282.83,101.685 283.5,101.5 Z"/></g>
<g><path style="opacity:1" fill="#f6fcfc" d="M 208.5,108.5 C 206.355,109.848 204.188,110.182 202,109.5C 202.594,111.509 202.427,113.509 201.5,115.5C 205.54,115.926 209.207,117.259 212.5,119.5C 214.325,126.012 214.992,132.679 214.5,139.5C 213.901,134.239 213.068,128.906 212,123.5C 210.167,122.333 208.667,120.833 207.5,119C 204.711,118.759 202.044,118.092 199.5,117C 200.337,115.989 200.67,114.822 200.5,113.5C 198.297,113.396 196.297,112.73 194.5,111.5C 194.182,106.968 194.515,102.634 195.5,98.5C 198.14,99.8201 200.807,101.153 203.5,102.5C 206.587,98.8187 205.92,96.1521 201.5,94.5C 201.489,92.9826 200.823,91.8159 199.5,91C 200.112,89.6967 200.446,88.5301 200.5,87.5C 204.043,89.7661 207.376,92.2661 210.5,95C 210.96,96.3006 211.294,97.634 211.5,99C 210.397,102.141 209.397,105.307 208.5,108.5 Z"/></g>
<g><path style="opacity:0.004" fill="#0000ff" d="M 30.5,103.5 C 31.8333,104.167 31.8333,104.167 30.5,103.5 Z"/></g>
<g><path style="opacity:1" fill="#bab8bd" d="M 193.5,97.5 C 194.167,97.5 194.833,97.5 195.5,97.5C 195.5,97.8333 195.5,98.1667 195.5,98.5C 194.515,102.634 194.182,106.968 194.5,111.5C 193.514,107.03 193.181,102.363 193.5,97.5 Z"/></g>
<g><path style="opacity:0.004" fill="#000000" d="M 245.5,103.5 C 246.833,104.167 246.833,104.167 245.5,103.5 Z"/></g>
<g><path style="opacity:0.004" fill="#000000" d="M 252.5,104.5 C 253.833,105.167 253.833,105.167 252.5,104.5 Z"/></g>
<g><path style="opacity:1" fill="#081418" d="M 74.5,94.5 C 73.8333,94.5 73.5,94.8333 73.5,95.5C 72.5104,101.31 72.1771,107.31 72.5,113.5C 71.828,116.908 72.828,119.575 75.5,121.5C 83.8068,122.498 92.1401,122.831 100.5,122.5C 100.5,120.167 100.5,117.833 100.5,115.5C 100.5,113.833 100.5,112.167 100.5,110.5C 97.1667,110.5 93.8333,110.5 90.5,110.5C 90.5,109.167 90.5,107.833 90.5,106.5C 91.3382,106.158 91.6716,105.492 91.5,104.5C 94.5,104.5 97.5,104.5 100.5,104.5C 100.5,102.5 100.5,100.5 100.5,98.5C 100.5,98.1667 100.5,97.8333 100.5,97.5C 101.167,97.8333 101.833,98.1667 102.5,98.5C 102.178,104.358 102.511,110.025 103.5,115.5C 103.5,117.833 103.5,120.167 103.5,122.5C 108.833,122.5 114.167,122.5 119.5,122.5C 109.493,123.417 99.4931,124.417 89.5,125.5C 88.6753,129.647 88.1753,133.981 88,138.5C 87.8227,134.644 87.3227,130.977 86.5,127.5C 85.8333,127.5 85.1667,127.5 84.5,127.5C 84.5,126.833 84.5,126.167 84.5,125.5C 79.5,124.833 74.5,124.167 69.5,123.5C 70.4731,121.052 70.8064,118.385 70.5,115.5C 70.5,112.833 70.5,110.167 70.5,107.5C 70.5,103.167 70.5,98.8333 70.5,94.5C 70.5,93.8333 70.8333,93.5 71.5,93.5C 72.4959,93.5858 73.3292,93.2524 74,92.5C 74.4643,93.0944 74.631,93.7611 74.5,94.5 Z"/></g>
<g><path style="opacity:1" fill="#282b2d" d="M 100.5,98.5 C 100.5,100.5 100.5,102.5 100.5,104.5C 97.5,104.5 94.5,104.5 91.5,104.5C 91.2606,102.533 91.5939,100.699 92.5,99C 95.146,98.5026 97.8127,98.3359 100.5,98.5 Z"/></g>
<g><path style="opacity:1" fill="#144a54" d="M 95.5,97.5 C 97.1667,97.5 98.8333,97.5 100.5,97.5C 100.5,97.8333 100.5,98.1667 100.5,98.5C 97.8127,98.3359 95.146,98.5026 92.5,99C 91.5939,100.699 91.2606,102.533 91.5,104.5C 91.6716,105.492 91.3382,106.158 90.5,106.5C 90.5,104.833 90.5,103.167 90.5,101.5C 88.1667,101.5 85.8333,101.5 83.5,101.5C 83.5,100.167 83.5,98.8333 83.5,97.5C 87.5,97.5 91.5,97.5 95.5,97.5 Z"/></g>
<g><path style="opacity:1" fill="#4d92a9" d="M 70.5,107.5 C 70.5,110.167 70.5,112.833 70.5,115.5C 69.2502,115.423 68.4169,114.756 68,113.5C 67.5045,111.527 67.3379,109.527 67.5,107.5C 68.5,107.5 69.5,107.5 70.5,107.5 Z"/></g>
<g><path style="opacity:1" fill="#10575e" d="M 90.5,106.5 C 90.5,107.833 90.5,109.167 90.5,110.5C 88.1667,110.5 85.8333,110.5 83.5,110.5C 83.5,109.167 83.5,107.833 83.5,106.5C 85.8333,106.5 88.1667,106.5 90.5,106.5 Z"/></g>
<g><path style="opacity:1" fill="#11838e" d="M 150.5,106.5 C 148.631,107.165 146.631,107.831 144.5,108.5C 150.043,110.125 155.71,110.792 161.5,110.5C 161.784,112.415 161.451,114.081 160.5,115.5C 160.5,114.167 160.5,112.833 160.5,111.5C 154.833,111.5 149.167,111.5 143.5,111.5C 143.5,109.833 143.5,108.167 143.5,106.5C 145.833,106.5 148.167,106.5 150.5,106.5 Z"/></g>
<g><path style="opacity:0.004" fill="#000000" d="M 274.5,113.5 C 275.833,114.167 275.833,114.167 274.5,113.5 Z"/></g>
<g><path style="opacity:1" fill="#1ed7dc" d="M 73.5,95.5 C 73.5,101.167 73.5,106.833 73.5,112.5C 74.8734,112.343 76.2068,112.51 77.5,113C 76.3044,113.654 76.3044,114.154 77.5,114.5C 81.7002,114.672 86.0335,114.338 90.5,113.5C 87.7051,113.062 85.3717,112.062 83.5,110.5C 85.8333,110.5 88.1667,110.5 90.5,110.5C 93.8333,110.5 97.1667,110.5 100.5,110.5C 100.5,112.167 100.5,113.833 100.5,115.5C 91.0141,115.994 81.6808,115.327 72.5,113.5C 72.1771,107.31 72.5104,101.31 73.5,95.5 Z"/></g>
<g><path style="opacity:1" fill="#0d1d22" d="M 132.5,91.5 C 133.167,91.5 133.833,91.5 134.5,91.5C 135.167,91.5 135.5,91.8333 135.5,92.5C 135.218,93.7777 134.551,94.7777 133.5,95.5C 133.5,101.5 133.5,107.5 133.5,113.5C 133.11,116.466 133.777,119.132 135.5,121.5C 143.807,122.498 152.14,122.831 160.5,122.5C 155.684,123.326 150.684,123.826 145.5,124C 146.381,124.708 147.047,125.542 147.5,126.5C 146.391,126.443 145.391,126.11 144.5,125.5C 136.427,124.868 128.76,125.535 121.5,127.5C 119.539,134.087 118.872,141.087 119.5,148.5C 119.5,150.833 119.5,153.167 119.5,155.5C 118.5,156.833 117.5,156.833 116.5,155.5C 116.5,153.167 116.5,150.833 116.5,148.5C 117.289,143.805 117.289,139.138 116.5,134.5C 117.468,132.393 117.802,130.059 117.5,127.5C 116.5,127.5 115.5,127.5 114.5,127.5C 106.567,125.532 98.2337,124.865 89.5,125.5C 99.4931,124.417 109.493,123.417 119.5,122.5C 123.122,119.881 126.455,116.881 129.5,113.5C 130.474,111.257 130.808,108.924 130.5,106.5C 130.5,101.833 130.5,97.1667 130.5,92.5C 130.842,91.6618 131.508,91.3284 132.5,91.5 Z"/></g>
<g><path style="opacity:0.004" fill="#000000" d="M 216.5,117.5 C 217.833,118.167 217.833,118.167 216.5,117.5 Z"/></g>
<g><path style="opacity:1" fill="#364d55" d="M 72.5,113.5 C 81.6808,115.327 91.0141,115.994 100.5,115.5C 100.5,117.833 100.5,120.167 100.5,122.5C 92.1401,122.831 83.8068,122.498 75.5,121.5C 72.828,119.575 71.828,116.908 72.5,113.5 Z"/></g>
<g><path style="opacity:1" fill="#404753" d="M 133.5,113.5 C 142.306,115.377 151.306,116.044 160.5,115.5C 160.5,117.833 160.5,120.167 160.5,122.5C 152.14,122.831 143.807,122.498 135.5,121.5C 133.777,119.132 133.11,116.466 133.5,113.5 Z"/></g>
<g><path style="opacity:0.004" fill="#000000" d="M 253.5,118.5 C 254.833,119.167 254.833,119.167 253.5,118.5 Z"/></g>
<g><path style="opacity:1" fill="#3e4650" d="M 130.5,106.5 C 130.808,108.924 130.474,111.257 129.5,113.5C 126.455,116.881 123.122,119.881 119.5,122.5C 114.167,122.5 108.833,122.5 103.5,122.5C 103.5,120.167 103.5,117.833 103.5,115.5C 109.537,115.829 115.537,115.496 121.5,114.5C 123.69,112.993 125.024,110.993 125.5,108.5C 127.322,108.169 128.989,107.502 130.5,106.5 Z"/></g>
<g><path style="opacity:1" fill="#f7fafa" d="M 194.5,111.5 C 196.297,112.73 198.297,113.396 200.5,113.5C 200.67,114.822 200.337,115.989 199.5,117C 202.044,118.092 204.711,118.759 207.5,119C 208.667,120.833 210.167,122.333 212,123.5C 213.068,128.906 213.901,134.239 214.5,139.5C 213.961,143.042 211.961,145.376 208.5,146.5C 209.791,160.543 203.457,166.876 189.5,165.5C 189.611,164.883 189.944,164.383 190.5,164C 186.432,164.293 183.098,162.959 180.5,160C 183.849,159.123 187.516,158.623 191.5,158.5C 194.343,158.915 197.01,159.415 199.5,160C 200.371,154.197 200.704,148.03 200.5,141.5C 202.667,140.731 204.834,139.731 207,138.5C 207.815,133.648 207.648,128.981 206.5,124.5C 204.735,123.539 202.735,123.205 200.5,123.5C 198.167,123.5 195.833,123.5 193.5,123.5C 193.646,119.481 193.979,115.481 194.5,111.5 Z"/></g>
<g><path style="opacity:0.004" fill="#000000" d="M 224.5,123.5 C 225.833,124.167 225.833,124.167 224.5,123.5 Z"/></g>
<g><path style="opacity:1" fill="#f6faf9" d="M 70.5,94.5 C 70.5,98.8333 70.5,103.167 70.5,107.5C 69.5,107.5 68.5,107.5 67.5,107.5C 67.3379,109.527 67.5045,111.527 68,113.5C 68.4169,114.756 69.2502,115.423 70.5,115.5C 70.8064,118.385 70.4731,121.052 69.5,123.5C 64.8381,122.804 60.6714,123.804 57,126.5C 56.5002,135.827 56.3335,145.161 56.5,154.5C 56.3286,157.488 57.6619,159.488 60.5,160.5C 57.5164,161.312 54.8498,161.312 52.5,160.5C 51.207,159.158 50.3736,157.491 50,155.5C 49.3333,145.5 49.3333,135.5 50,125.5C 50.2004,123.68 51.0337,122.347 52.5,121.5C 55.5416,120.319 58.5416,118.985 61.5,117.5C 62.0895,113.23 62.0895,108.897 61.5,104.5C 59.4727,104.662 57.4727,104.495 55.5,104C 52.6415,101.806 52.1415,99.306 54,96.5C 56.2526,99.1914 59.086,100.858 62.5,101.5C 62.5,100.5 62.5,99.5 62.5,98.5C 64.1788,98.7148 65.1788,98.0481 65.5,96.5C 66.9303,95.4625 68.597,94.7959 70.5,94.5 Z"/></g>
<g><path style="opacity:1" fill="#114147" d="M 200.5,123.5 C 202.735,123.205 204.735,123.539 206.5,124.5C 205.508,124.328 204.842,124.662 204.5,125.5C 196.167,125.5 187.833,125.5 179.5,125.5C 186.5,124.833 193.5,124.167 200.5,123.5 Z"/></g>
<g><path style="opacity:1" fill="#1dd4db" d="M 84.5,125.5 C 84.5,126.167 84.5,126.833 84.5,127.5C 81.9455,126.612 79.2788,126.279 76.5,126.5C 76.9926,128.806 77.3259,131.139 77.5,133.5C 80.5,133.5 83.5,133.5 86.5,133.5C 83.3752,134.479 80.0419,134.813 76.5,134.5C 76.5,133.167 76.5,131.833 76.5,130.5C 74.1667,130.5 71.8333,130.5 69.5,130.5C 70.2341,129.292 70.5674,127.959 70.5,126.5C 67.3915,126.264 64.3915,126.597 61.5,127.5C 68.7605,125.535 76.4271,124.868 84.5,125.5 Z"/></g>
<g><path style="opacity:1" fill="#20d3d5" d="M 89.5,125.5 C 98.2337,124.865 106.567,125.532 114.5,127.5C 106.586,126.533 98.5856,126.199 90.5,126.5C 90.5,133.5 90.5,140.5 90.5,147.5C 93.1667,147.5 95.8333,147.5 98.5,147.5C 98.1936,144.615 98.5269,141.948 99.5,139.5C 99.5,141.833 99.5,144.167 99.5,146.5C 99.5,147.167 99.5,147.833 99.5,148.5C 96.1667,148.5 92.8333,148.5 89.5,148.5C 89.5,140.833 89.5,133.167 89.5,125.5 Z"/></g>
<g><path style="opacity:1" fill="#10f4f5" d="M 114.5,127.5 C 115.5,127.5 116.5,127.5 117.5,127.5C 117.802,130.059 117.468,132.393 116.5,134.5C 115.351,134.791 114.684,135.624 114.5,137C 116.044,140.339 116.71,143.839 116.5,147.5C 113.5,147.5 110.5,147.5 107.5,147.5C 107.806,144.615 107.473,141.948 106.5,139.5C 104.167,139.5 101.833,139.5 99.5,139.5C 98.5269,141.948 98.1936,144.615 98.5,147.5C 95.8333,147.5 93.1667,147.5 90.5,147.5C 90.5,140.5 90.5,133.5 90.5,126.5C 98.5856,126.199 106.586,126.533 114.5,127.5 Z"/></g>
<g><path style="opacity:1" fill="#0ef8f9" d="M 84.5,127.5 C 85.1667,127.5 85.8333,127.5 86.5,127.5C 86.5,129.5 86.5,131.5 86.5,133.5C 83.5,133.5 80.5,133.5 77.5,133.5C 77.3259,131.139 76.9926,128.806 76.5,126.5C 79.2788,126.279 81.9455,126.612 84.5,127.5 Z"/></g>
<g><path style="opacity:1" fill="#08fbfb" d="M 129.5,134.5 C 132.687,135.806 136.02,135.806 139.5,134.5C 138.811,132.556 138.311,130.556 138,128.5C 136.703,129.784 135.536,129.617 134.5,128C 137.79,126.265 141.123,126.099 144.5,127.5C 146.399,133.882 147.066,140.549 146.5,147.5C 143.5,147.5 140.5,147.5 137.5,147.5C 137.806,144.615 137.473,141.948 136.5,139.5C 134.167,139.5 131.833,139.5 129.5,139.5C 129.5,141.833 129.5,144.167 129.5,146.5C 129.5,146.833 129.5,147.167 129.5,147.5C 126.552,147.777 123.719,147.444 121,146.5C 120.21,140.085 120.376,133.752 121.5,127.5C 123.808,126.286 126.141,126.286 128.5,127.5C 128.291,128.086 127.957,128.586 127.5,129C 128.109,130.948 128.776,132.782 129.5,134.5 Z"/></g>
<g><path style="opacity:1" fill="#18e6e9" d="M 144.5,125.5 C 144.5,126.167 144.5,126.833 144.5,127.5C 141.123,126.099 137.79,126.265 134.5,128C 135.536,129.617 136.703,129.784 138,128.5C 138.311,130.556 138.811,132.556 139.5,134.5C 136.02,135.806 132.687,135.806 129.5,134.5C 128.776,132.782 128.109,130.948 127.5,129C 127.957,128.586 128.291,128.086 128.5,127.5C 126.141,126.286 123.808,126.286 121.5,127.5C 128.76,125.535 136.427,124.868 144.5,125.5 Z"/></g>
<g><path style="opacity:0.004" fill="#000000" d="M 235.5,127.5 C 236.833,128.167 236.833,128.167 235.5,127.5 Z"/></g>
<g><path style="opacity:1" fill="#04fdfd" d="M 69.5,130.5 C 68.5119,135.64 68.1786,140.974 68.5,146.5C 64.8226,146.848 62.1559,146.182 60.5,144.5C 60.2143,138.741 60.5476,133.075 61.5,127.5C 64.3915,126.597 67.3915,126.264 70.5,126.5C 70.5674,127.959 70.2341,129.292 69.5,130.5 Z"/></g>
<g><path style="opacity:0.004" fill="#000000" d="M 219.5,128.5 C 220.833,129.167 220.833,129.167 219.5,128.5 Z"/></g>
<g><path style="opacity:1" fill="#17404b" d="M 177.5,130.5 C 177.5,130.833 177.5,131.167 177.5,131.5C 175.621,132.341 173.621,132.675 171.5,132.5C 171.5,133.5 171.5,134.5 171.5,135.5C 169.821,135.285 168.821,135.952 168.5,137.5C 168.167,137.5 167.833,137.5 167.5,137.5C 167.5,136.5 167.5,135.5 167.5,134.5C 164.833,134.5 162.167,134.5 159.5,134.5C 159.5,133.167 159.5,131.833 159.5,130.5C 165.5,130.5 171.5,130.5 177.5,130.5 Z"/></g>
<g><path style="opacity:1" fill="#0b4d55" d="M 99.5,130.5 C 101.833,130.5 104.167,130.5 106.5,130.5C 106.5,131.833 106.5,133.167 106.5,134.5C 104.167,134.5 101.833,134.5 99.5,134.5C 99.5,133.167 99.5,131.833 99.5,130.5 Z"/></g>
<g><path style="opacity:1" fill="#114853" d="M 129.5,134.5 C 129.5,133.167 129.5,131.833 129.5,130.5C 131.833,130.5 134.167,130.5 136.5,130.5C 136.5,131.833 136.5,133.167 136.5,134.5C 134.167,134.5 131.833,134.5 129.5,134.5 Z"/></g>
<g><path style="opacity:1" fill="#22d1d9" d="M 121.5,127.5 C 120.376,133.752 120.21,140.085 121,146.5C 123.719,147.444 126.552,147.777 129.5,147.5C 129.5,147.833 129.5,148.167 129.5,148.5C 126.167,148.5 122.833,148.5 119.5,148.5C 118.872,141.087 119.539,134.087 121.5,127.5 Z"/></g>
<g><path style="opacity:1" fill="#282937" d="M 177.5,131.5 C 177.975,134.082 177.308,136.082 175.5,137.5C 173.167,137.5 170.833,137.5 168.5,137.5C 168.821,135.952 169.821,135.285 171.5,135.5C 171.5,134.5 171.5,133.5 171.5,132.5C 173.621,132.675 175.621,132.341 177.5,131.5 Z"/></g>
<g><path style="opacity:1" fill="#122c30" d="M 69.5,123.5 C 74.5,124.167 79.5,124.833 84.5,125.5C 76.4271,124.868 68.7605,125.535 61.5,127.5C 60.5,127.5 59.5,127.5 58.5,127.5C 58.5,133.5 58.5,139.5 58.5,145.5C 57.5233,148.287 57.19,151.287 57.5,154.5C 57.1667,154.5 56.8333,154.5 56.5,154.5C 56.3335,145.161 56.5002,135.827 57,126.5C 60.6714,123.804 64.8381,122.804 69.5,123.5 Z"/></g>
<g><path style="opacity:1" fill="#119fa7" d="M 144.5,127.5 C 145.5,127.5 146.5,127.5 147.5,127.5C 147.5,134.5 147.5,141.5 147.5,148.5C 147.167,148.5 146.833,148.5 146.5,148.5C 143.5,148.5 140.5,148.5 137.5,148.5C 136.662,148.158 136.328,147.492 136.5,146.5C 136.5,144.167 136.5,141.833 136.5,139.5C 137.473,141.948 137.806,144.615 137.5,147.5C 140.5,147.5 143.5,147.5 146.5,147.5C 147.066,140.549 146.399,133.882 144.5,127.5 Z"/></g>
<g><path style="opacity:1" fill="#022327" d="M 144.5,125.5 C 145.391,126.11 146.391,126.443 147.5,126.5C 148.833,126.5 150.167,126.5 151.5,126.5C 151.5,126.833 151.5,127.167 151.5,127.5C 149.539,134.087 148.872,141.087 149.5,148.5C 148.833,148.5 148.167,148.5 147.5,148.5C 147.5,141.5 147.5,134.5 147.5,127.5C 146.5,127.5 145.5,127.5 144.5,127.5C 144.5,126.833 144.5,126.167 144.5,125.5 Z"/></g>
<g><path style="opacity:1" fill="#17343b" d="M 69.5,130.5 C 71.8333,130.5 74.1667,130.5 76.5,130.5C 76.5,131.833 76.5,133.167 76.5,134.5C 76.5,135.833 76.5,137.167 76.5,138.5C 76.5,140.167 76.5,141.833 76.5,143.5C 74.1667,143.5 71.8333,143.5 69.5,143.5C 69.5,139.167 69.5,134.833 69.5,130.5 Z"/></g>
<g><path style="opacity:0.004" fill="#000000" d="M 25.5,138.5 C 26.8333,139.167 26.8333,139.167 25.5,138.5 Z"/></g>
<g><path style="opacity:1" fill="#010509" d="M 70.5,137.5 C 72.1667,137.5 73.8333,137.5 75.5,137.5C 75.5,139.167 75.5,140.833 75.5,142.5C 73.8333,142.5 72.1667,142.5 70.5,142.5C 70.5,140.833 70.5,139.167 70.5,137.5 Z"/></g>
<g><path style="opacity:1" fill="#064d59" d="M 89.5,125.5 C 89.5,133.167 89.5,140.833 89.5,148.5C 88.7784,148.082 88.2784,147.416 88,146.5C 87.6174,147.056 87.1174,147.389 86.5,147.5C 86.5,146.833 86.5,146.167 86.5,145.5C 86.5,143.167 86.5,140.833 86.5,138.5C 83.1667,138.5 79.8333,138.5 76.5,138.5C 76.5,137.167 76.5,135.833 76.5,134.5C 80.0419,134.813 83.3752,134.479 86.5,133.5C 86.5,131.5 86.5,129.5 86.5,127.5C 87.3227,130.977 87.8227,134.644 88,138.5C 88.1753,133.981 88.6753,129.647 89.5,125.5 Z"/></g>
<g><path style="opacity:1" fill="#1dc9d1" d="M 177.5,130.5 C 171.5,130.5 165.5,130.5 159.5,130.5C 159.5,131.833 159.5,133.167 159.5,134.5C 162.167,134.5 164.833,134.5 167.5,134.5C 167.5,135.5 167.5,136.5 167.5,137.5C 167.5,138.167 167.5,138.833 167.5,139.5C 164.833,139.5 162.167,139.5 159.5,139.5C 159.5,142.167 159.5,144.833 159.5,147.5C 159.5,147.833 159.5,148.167 159.5,148.5C 156.167,148.5 152.833,148.5 149.5,148.5C 148.872,141.087 149.539,134.087 151.5,127.5C 151.5,127.167 151.5,126.833 151.5,126.5C 159.984,125.507 168.651,125.174 177.5,125.5C 177.5,127.167 177.5,128.833 177.5,130.5 Z"/></g>
<g><path style="opacity:1" fill="#0afbfc" d="M 151.5,127.5 C 159.748,126.531 168.082,126.198 176.5,126.5C 176.5,127.5 176.5,128.5 176.5,129.5C 170.5,129.5 164.5,129.5 158.5,129.5C 158.5,131.5 158.5,133.5 158.5,135.5C 161.167,135.5 163.833,135.5 166.5,135.5C 166.5,136.5 166.5,137.5 166.5,138.5C 163.833,138.5 161.167,138.5 158.5,138.5C 158.5,141.5 158.5,144.5 158.5,147.5C 155.833,147.5 153.167,147.5 150.5,147.5C 150.207,140.745 150.54,134.078 151.5,127.5 Z"/></g>
<g><path style="opacity:1" fill="#253945" d="M 167.5,139.5 C 167.5,141.833 167.5,144.167 167.5,146.5C 164.721,146.279 162.054,146.612 159.5,147.5C 159.5,144.833 159.5,142.167 159.5,139.5C 162.167,139.5 164.833,139.5 167.5,139.5 Z"/></g>
<g><path style="opacity:1" fill="#243c48" d="M 99.5,139.5 C 101.833,139.5 104.167,139.5 106.5,139.5C 106.5,141.833 106.5,144.167 106.5,146.5C 104.167,146.5 101.833,146.5 99.5,146.5C 99.5,144.167 99.5,141.833 99.5,139.5 Z"/></g>
<g><path style="opacity:1" fill="#eff2f3" d="M 170.5,140.5 C 175.167,140.5 179.833,140.5 184.5,140.5C 184.334,145.844 184.501,151.177 185,156.5C 189.667,157.833 194.333,157.833 199,156.5C 199.174,151.316 199.674,146.316 200.5,141.5C 200.704,148.03 200.371,154.197 199.5,160C 197.01,159.415 194.343,158.915 191.5,158.5C 187.516,158.623 183.849,159.123 180.5,160C 183.098,162.959 186.432,164.293 190.5,164C 189.944,164.383 189.611,164.883 189.5,165.5C 181.294,164.793 176.961,160.293 176.5,152C 177.554,150.612 177.72,149.112 177,147.5C 173.989,151.841 170.989,156.175 168,160.5C 166.159,163.178 163.659,164.845 160.5,165.5C 144.421,165.421 127.754,165.421 110.5,165.5C 110.611,164.883 110.944,164.383 111.5,164C 107.833,163.667 104.167,163.333 100.5,163C 98.1368,160.916 98.1368,159.083 100.5,157.5C 101.167,157.5 101.5,157.167 101.5,156.5C 102.268,155.737 102.768,154.737 103,153.5C 103.278,154.416 103.778,155.082 104.5,155.5C 108.614,156.826 113.114,157.493 118,157.5C 122.5,157.167 127,156.833 131.5,156.5C 133.023,153.812 134.357,153.978 135.5,157C 144.167,157.667 152.833,157.667 161.5,157C 162.444,154.281 162.777,151.448 162.5,148.5C 164.527,148.662 166.527,148.495 168.5,148C 169.123,145.393 169.79,142.893 170.5,140.5 Z"/></g>
<g><path style="opacity:1" fill="#253b45" d="M 136.5,139.5 C 136.5,141.833 136.5,144.167 136.5,146.5C 134.167,146.5 131.833,146.5 129.5,146.5C 129.5,144.167 129.5,141.833 129.5,139.5C 131.833,139.5 134.167,139.5 136.5,139.5 Z"/></g>
<g><path style="opacity:1" fill="#18dfe4" d="M 61.5,127.5 C 60.5476,133.075 60.2143,138.741 60.5,144.5C 62.1559,146.182 64.8226,146.848 68.5,146.5C 68.1786,140.974 68.5119,135.64 69.5,130.5C 69.5,134.833 69.5,139.167 69.5,143.5C 71.8333,143.5 74.1667,143.5 76.5,143.5C 76.5,141.833 76.5,140.167 76.5,138.5C 79.8333,138.5 83.1667,138.5 86.5,138.5C 86.5,140.833 86.5,143.167 86.5,145.5C 84.9519,145.821 84.2852,146.821 84.5,148.5C 76.8045,148.831 69.1378,148.497 61.5,147.5C 60.6431,146.575 59.6431,145.908 58.5,145.5C 58.5,139.5 58.5,133.5 58.5,127.5C 59.5,127.5 60.5,127.5 61.5,127.5 Z"/></g>
<g><path style="opacity:1" fill="#20a5ae" d="M 116.5,134.5 C 117.289,139.138 117.289,143.805 116.5,148.5C 113.167,148.5 109.833,148.5 106.5,148.5C 106.5,147.833 106.5,147.167 106.5,146.5C 106.5,144.167 106.5,141.833 106.5,139.5C 107.473,141.948 107.806,144.615 107.5,147.5C 110.5,147.5 113.5,147.5 116.5,147.5C 116.71,143.839 116.044,140.339 114.5,137C 114.684,135.624 115.351,134.791 116.5,134.5 Z"/></g>
<g><path style="opacity:0.004" fill="#000000" d="M 230.5,147.5 C 231.833,148.167 231.833,148.167 230.5,147.5 Z"/></g>
<g><path style="opacity:0.004" fill="#000000" d="M 240.5,147.5 C 241.833,148.167 241.833,148.167 240.5,147.5 Z"/></g>
<g><path style="opacity:1" fill="#2d4a59" d="M 58.5,145.5 C 59.6431,145.908 60.6431,146.575 61.5,147.5C 69.1378,148.497 76.8045,148.831 84.5,148.5C 84.2852,146.821 84.9519,145.821 86.5,145.5C 86.5,146.167 86.5,146.833 86.5,147.5C 86.8399,150.144 86.1733,152.477 84.5,154.5C 76.8333,155.833 69.1667,155.833 61.5,154.5C 58.7717,152.219 57.7717,149.219 58.5,145.5 Z"/></g>
<g><path style="opacity:1" fill="#304451" d="M 89.5,148.5 C 92.8333,148.5 96.1667,148.5 99.5,148.5C 99.5,149.833 99.5,151.167 99.5,152.5C 101.167,152.5 102.833,152.5 104.5,152.5C 104.5,153.5 104.5,154.5 104.5,155.5C 103.778,155.082 103.278,154.416 103,153.5C 102.768,154.737 102.268,155.737 101.5,156.5C 101.631,155.761 101.464,155.094 101,154.5C 97.27,155.46 93.4367,155.793 89.5,155.5C 89.5,153.167 89.5,150.833 89.5,148.5 Z"/></g>
<g><path style="opacity:0.004" fill="#000000" d="M 251.5,151.5 C 252.833,152.167 252.833,152.167 251.5,151.5 Z"/></g>
<g><path style="opacity:0.004" fill="#000000" d="M 15.5,153.5 C 16.8333,154.167 16.8333,154.167 15.5,153.5 Z"/></g>
<g><path style="opacity:1" fill="#0a1013" d="M 58.5,145.5 C 57.7717,149.219 58.7717,152.219 61.5,154.5C 69.1667,155.833 76.8333,155.833 84.5,154.5C 86.1733,152.477 86.8399,150.144 86.5,147.5C 87.1174,147.389 87.6174,147.056 88,146.5C 88.2784,147.416 88.7784,148.082 89.5,148.5C 89.5,150.833 89.5,153.167 89.5,155.5C 93.4367,155.793 97.27,155.46 101,154.5C 101.464,155.094 101.631,155.761 101.5,156.5C 101.5,157.167 101.167,157.5 100.5,157.5C 86.8293,157.667 73.1626,157.5 59.5,157C 58.6195,156.292 57.9528,155.458 57.5,154.5C 57.19,151.287 57.5233,148.287 58.5,145.5 Z"/></g>
<g><path style="opacity:1" fill="#11181b" d="M 163.5,90.5 C 163.5,91.1667 163.5,91.8333 163.5,92.5C 163.5,92.8333 163.5,93.1667 163.5,93.5C 163.5,100.833 163.5,108.167 163.5,115.5C 163.5,117.833 163.5,120.167 163.5,122.5C 166.833,122.5 170.167,122.5 173.5,122.5C 173.5,120.167 173.5,117.833 173.5,115.5C 174.338,115.158 174.672,114.492 174.5,113.5C 176.5,113.5 178.5,113.5 180.5,113.5C 180.5,114.167 180.5,114.833 180.5,115.5C 181.219,117.764 181.552,120.097 181.5,122.5C 184.5,122.5 187.5,122.5 190.5,122.5C 190.5,120.167 190.5,117.833 190.5,115.5C 191.833,112.5 191.833,109.5 190.5,106.5C 191.157,102.519 191.157,98.5195 190.5,94.5C 190.5,93.8333 190.833,93.5 191.5,93.5C 193.104,94.287 193.771,95.6203 193.5,97.5C 193.181,102.363 193.514,107.03 194.5,111.5C 193.979,115.481 193.646,119.481 193.5,123.5C 195.833,123.5 198.167,123.5 200.5,123.5C 193.5,124.167 186.5,124.833 179.5,125.5C 179.5,127.167 179.5,128.833 179.5,130.5C 179.5,132.833 179.5,135.167 179.5,137.5C 181.833,137.5 184.167,137.5 186.5,137.5C 186.185,141.371 186.518,145.038 187.5,148.5C 187.5,150.833 187.5,153.167 187.5,155.5C 190.833,155.5 194.167,155.5 197.5,155.5C 197.5,153.167 197.5,150.833 197.5,148.5C 197.5,144.833 197.5,141.167 197.5,137.5C 198.468,135.393 198.802,133.059 198.5,130.5C 200.833,130.5 203.167,130.5 205.5,130.5C 205.784,128.585 205.451,126.919 204.5,125.5C 204.842,124.662 205.508,124.328 206.5,124.5C 207.648,128.981 207.815,133.648 207,138.5C 204.834,139.731 202.667,140.731 200.5,141.5C 199.674,146.316 199.174,151.316 199,156.5C 194.333,157.833 189.667,157.833 185,156.5C 184.501,151.177 184.334,145.844 184.5,140.5C 179.833,140.5 175.167,140.5 170.5,140.5C 172.531,140.028 174.198,139.028 175.5,137.5C 177.308,136.082 177.975,134.082 177.5,131.5C 177.5,131.167 177.5,130.833 177.5,130.5C 177.5,128.833 177.5,127.167 177.5,125.5C 168.651,125.174 159.984,125.507 151.5,126.5C 150.167,126.5 148.833,126.5 147.5,126.5C 147.047,125.542 146.381,124.708 145.5,124C 150.684,123.826 155.684,123.326 160.5,122.5C 160.5,120.167 160.5,117.833 160.5,115.5C 161.451,114.081 161.784,112.415 161.5,110.5C 155.71,110.792 150.043,110.125 144.5,108.5C 146.631,107.831 148.631,107.165 150.5,106.5C 151.338,106.158 151.672,105.492 151.5,104.5C 154.5,104.5 157.5,104.5 160.5,104.5C 160.5,102.167 160.5,99.8333 160.5,97.5C 161.833,95.8333 161.833,94.1667 160.5,92.5C 160.5,92.1667 160.5,91.8333 160.5,91.5C 161.391,90.8902 162.391,90.5569 163.5,90.5 Z"/></g>
<g><path style="opacity:1" fill="#2b4351" d="M 187.5,148.5 C 190.833,148.5 194.167,148.5 197.5,148.5C 197.5,150.833 197.5,153.167 197.5,155.5C 194.167,155.5 190.833,155.5 187.5,155.5C 187.5,153.167 187.5,150.833 187.5,148.5 Z"/></g>
<g><path style="opacity:1" fill="#1bc8cb" d="M 197.5,130.5 C 197.5,132.833 197.5,135.167 197.5,137.5C 197.5,141.167 197.5,144.833 197.5,148.5C 194.167,148.5 190.833,148.5 187.5,148.5C 187.5,148.167 187.5,147.833 187.5,147.5C 190.5,147.5 193.5,147.5 196.5,147.5C 196.178,141.642 196.511,135.975 197.5,130.5 Z"/></g>
<g><path style="opacity:1" fill="#0d7884" d="M 204.5,125.5 C 205.451,126.919 205.784,128.585 205.5,130.5C 203.167,130.5 200.833,130.5 198.5,130.5C 198.802,133.059 198.468,135.393 197.5,137.5C 197.5,135.167 197.5,132.833 197.5,130.5C 199.607,129.532 201.941,129.198 204.5,129.5C 204.5,128.5 204.5,127.5 204.5,126.5C 204.5,126.167 204.5,125.833 204.5,125.5 Z"/></g>
<g><path style="opacity:1" fill="#243d4a" d="M 179.5,130.5 C 182.167,130.5 184.833,130.5 187.5,130.5C 187.5,136.167 187.5,141.833 187.5,147.5C 187.5,147.833 187.5,148.167 187.5,148.5C 186.518,145.038 186.185,141.371 186.5,137.5C 184.167,137.5 181.833,137.5 179.5,137.5C 179.5,135.167 179.5,132.833 179.5,130.5 Z"/></g>
<g><path style="opacity:1" fill="#0dfafa" d="M 204.5,126.5 C 204.5,127.5 204.5,128.5 204.5,129.5C 201.941,129.198 199.607,129.532 197.5,130.5C 196.511,135.975 196.178,141.642 196.5,147.5C 193.5,147.5 190.5,147.5 187.5,147.5C 187.5,141.833 187.5,136.167 187.5,130.5C 185.393,129.532 183.059,129.198 180.5,129.5C 180.5,128.5 180.5,127.5 180.5,126.5C 188.5,126.5 196.5,126.5 204.5,126.5 Z"/></g>
<g><path style="opacity:1" fill="#1fcace" d="M 179.5,125.5 C 187.833,125.5 196.167,125.5 204.5,125.5C 204.5,125.833 204.5,126.167 204.5,126.5C 196.5,126.5 188.5,126.5 180.5,126.5C 180.5,127.5 180.5,128.5 180.5,129.5C 183.059,129.198 185.393,129.532 187.5,130.5C 184.833,130.5 182.167,130.5 179.5,130.5C 179.5,128.833 179.5,127.167 179.5,125.5 Z"/></g>
<g><path style="opacity:1" fill="#3b4753" d="M 180.5,115.5 C 183.833,115.5 187.167,115.5 190.5,115.5C 190.5,117.833 190.5,120.167 190.5,122.5C 187.5,122.5 184.5,122.5 181.5,122.5C 181.552,120.097 181.219,117.764 180.5,115.5 Z"/></g>
<g><path style="opacity:1" fill="#3e464f" d="M 163.5,115.5 C 166.833,115.5 170.167,115.5 173.5,115.5C 173.5,117.833 173.5,120.167 173.5,122.5C 170.167,122.5 166.833,122.5 163.5,122.5C 163.5,120.167 163.5,117.833 163.5,115.5 Z"/></g>
<g><path style="opacity:1" fill="#1ec3ce" d="M 180.5,106.5 C 181.473,108.948 181.806,111.615 181.5,114.5C 184.5,114.5 187.5,114.5 190.5,114.5C 190.5,111.833 190.5,109.167 190.5,106.5C 191.833,109.5 191.833,112.5 190.5,115.5C 187.167,115.5 183.833,115.5 180.5,115.5C 180.5,114.833 180.5,114.167 180.5,113.5C 180.5,111.5 180.5,109.5 180.5,107.5C 180.5,107.167 180.5,106.833 180.5,106.5 Z"/></g>
<g><path style="opacity:1" fill="#07656e" d="M 180.5,106.5 C 180.5,106.833 180.5,107.167 180.5,107.5C 178.5,107.5 176.5,107.5 174.5,107.5C 174.5,109.5 174.5,111.5 174.5,113.5C 174.672,114.492 174.338,115.158 173.5,115.5C 173.5,112.5 173.5,109.5 173.5,106.5C 175.833,106.5 178.167,106.5 180.5,106.5 Z"/></g>
<g><path style="opacity:1" fill="#108c91" d="M 188.5,94.5 C 189.167,94.5 189.833,94.5 190.5,94.5C 191.157,98.5195 191.157,102.519 190.5,106.5C 189.351,106.209 188.684,105.376 188.5,104C 190.941,100.652 190.941,97.4857 188.5,94.5 Z"/></g>
<g><path style="opacity:1" fill="#0ff6f8" d="M 163.5,93.5 C 171.918,93.1981 180.252,93.5314 188.5,94.5C 190.941,97.4857 190.941,100.652 188.5,104C 188.684,105.376 189.351,106.209 190.5,106.5C 190.5,109.167 190.5,111.833 190.5,114.5C 187.5,114.5 184.5,114.5 181.5,114.5C 181.806,111.615 181.473,108.948 180.5,106.5C 178.167,106.5 175.833,106.5 173.5,106.5C 173.5,109.5 173.5,112.5 173.5,115.5C 170.167,115.5 166.833,115.5 163.5,115.5C 163.5,108.167 163.5,100.833 163.5,93.5 Z"/></g>
<g><path style="opacity:1" fill="#2d353c" d="M 180.5,107.5 C 180.5,109.5 180.5,111.5 180.5,113.5C 178.5,113.5 176.5,113.5 174.5,113.5C 174.5,111.5 174.5,109.5 174.5,107.5C 176.5,107.5 178.5,107.5 180.5,107.5 Z"/></g>
<g><path style="opacity:1" fill="#0f4b54" d="M 173.5,97.5 C 175.833,97.5 178.167,97.5 180.5,97.5C 180.5,98.8333 180.5,100.167 180.5,101.5C 178.167,101.5 175.833,101.5 173.5,101.5C 173.5,100.167 173.5,98.8333 173.5,97.5 Z"/></g>
<g><path style="opacity:1" fill="#0b0d0f" d="M 167.5,137.5 C 167.833,137.5 168.167,137.5 168.5,137.5C 170.833,137.5 173.167,137.5 175.5,137.5C 174.198,139.028 172.531,140.028 170.5,140.5C 169.79,142.893 169.123,145.393 168.5,148C 166.527,148.495 164.527,148.662 162.5,148.5C 162.777,151.448 162.444,154.281 161.5,157C 152.833,157.667 144.167,157.667 135.5,157C 134.357,153.978 133.023,153.812 131.5,156.5C 127,156.833 122.5,157.167 118,157.5C 113.114,157.493 108.614,156.826 104.5,155.5C 104.5,154.5 104.5,153.5 104.5,152.5C 102.833,152.5 101.167,152.5 99.5,152.5C 99.5,151.167 99.5,149.833 99.5,148.5C 99.5,147.833 99.5,147.167 99.5,146.5C 101.833,146.5 104.167,146.5 106.5,146.5C 106.5,147.167 106.5,147.833 106.5,148.5C 106.318,150.591 106.652,152.591 107.5,154.5C 110.428,155.484 113.428,155.817 116.5,155.5C 117.5,156.833 118.5,156.833 119.5,155.5C 122.833,155.5 126.167,155.5 129.5,155.5C 129.5,153.167 129.5,150.833 129.5,148.5C 129.5,148.167 129.5,147.833 129.5,147.5C 129.5,147.167 129.5,146.833 129.5,146.5C 131.833,146.5 134.167,146.5 136.5,146.5C 136.328,147.492 136.662,148.158 137.5,148.5C 137.5,150.833 137.5,153.167 137.5,155.5C 140.5,155.5 143.5,155.5 146.5,155.5C 146.5,153.167 146.5,150.833 146.5,148.5C 146.833,148.5 147.167,148.5 147.5,148.5C 148.167,148.5 148.833,148.5 149.5,148.5C 149.5,150.833 149.5,153.167 149.5,155.5C 152.833,155.5 156.167,155.5 159.5,155.5C 159.5,153.167 159.5,150.833 159.5,148.5C 159.5,148.167 159.5,147.833 159.5,147.5C 162.054,146.612 164.721,146.279 167.5,146.5C 167.5,144.167 167.5,141.833 167.5,139.5C 167.5,138.833 167.5,138.167 167.5,137.5 Z"/></g>
<g><path style="opacity:1" fill="#354453" d="M 137.5,148.5 C 140.5,148.5 143.5,148.5 146.5,148.5C 146.5,150.833 146.5,153.167 146.5,155.5C 143.5,155.5 140.5,155.5 137.5,155.5C 137.5,153.167 137.5,150.833 137.5,148.5 Z"/></g>
<g><path style="opacity:1" fill="#354351" d="M 119.5,148.5 C 122.833,148.5 126.167,148.5 129.5,148.5C 129.5,150.833 129.5,153.167 129.5,155.5C 126.167,155.5 122.833,155.5 119.5,155.5C 119.5,153.167 119.5,150.833 119.5,148.5 Z"/></g>
<g><path style="opacity:1" fill="#31424f" d="M 149.5,148.5 C 152.833,148.5 156.167,148.5 159.5,148.5C 159.5,150.833 159.5,153.167 159.5,155.5C 156.167,155.5 152.833,155.5 149.5,155.5C 149.5,153.167 149.5,150.833 149.5,148.5 Z"/></g>
<g><path style="opacity:1" fill="#334856" d="M 106.5,148.5 C 109.833,148.5 113.167,148.5 116.5,148.5C 116.5,150.833 116.5,153.167 116.5,155.5C 113.428,155.817 110.428,155.484 107.5,154.5C 106.652,152.591 106.318,150.591 106.5,148.5 Z"/></g>
<g><path style="opacity:1" fill="#e8f1f4" d="M 56.5,154.5 C 56.8333,154.5 57.1667,154.5 57.5,154.5C 57.9528,155.458 58.6195,156.292 59.5,157C 73.1626,157.5 86.8293,157.667 100.5,157.5C 98.1368,159.083 98.1368,160.916 100.5,163C 104.167,163.333 107.833,163.667 111.5,164C 110.944,164.383 110.611,164.883 110.5,165.5C 93.794,165.451 77.1273,165.285 60.5,165C 57.2224,164.549 54.5558,163.049 52.5,160.5C 54.8498,161.312 57.5164,161.312 60.5,160.5C 57.6619,159.488 56.3286,157.488 56.5,154.5 Z"/></g>
<g><path style="opacity:0.004" fill="#000000" d="M 4.5,159.5 C 5.83333,160.167 5.83333,160.167 4.5,159.5 Z"/></g>
<g><path style="opacity:0.004" fill="#000000" d="M 7.5,159.5 C 8.83333,160.167 8.83333,160.167 7.5,159.5 Z"/></g>
<g><path style="opacity:0.004" fill="#000000" d="M 244.5,160.5 C 245.833,161.167 245.833,161.167 244.5,160.5 Z"/></g>
<g><path style="opacity:0.004" fill="#000000" d="M 249.5,163.5 C 250.833,164.167 250.833,164.167 249.5,163.5 Z"/></g>
<g><path style="opacity:0.004" fill="#0000ff" d="M 7.5,164.5 C 8.83333,165.167 8.83333,165.167 7.5,164.5 Z"/></g>
<g><path style="opacity:0.004" fill="#000000" d="M 3.5,167.5 C 4.83333,168.167 4.83333,168.167 3.5,167.5 Z"/></g>
<g><path style="opacity:0.004" fill="#000000" d="M 188.5,171.5 C 189.833,172.167 189.833,172.167 188.5,171.5 Z"/></g>
<g><path style="opacity:0.004" fill="#000000" d="M 57.5,175.5 C 56.8333,174.167 56.8333,174.167 57.5,175.5 Z"/></g>
</svg>
